<svg xmlns="http://www.w3.org/2000/svg" xmlns:xlink="http://www.w3.org/1999/xlink" width="500" zoomAndPan="magnify" viewBox="0 0 375 374.999991" height="500" preserveAspectRatio="xMidYMid meet" version="1.0"><defs><g/><clipPath id="300101e2e4"><path d="M 43 124 L 155 124 L 155 236 L 43 236 Z M 43 124 " clip-rule="nonzero"/></clipPath><clipPath id="a6044305ae"><path d="M 37.5 131.746094 L 147.167969 118.953125 L 159.964844 228.621094 L 50.292969 241.414062 Z M 37.5 131.746094 " clip-rule="nonzero"/></clipPath><clipPath id="c587ba4fa9"><path d="M 95.761719 124.949219 L 88.90625 125.75 C 79.441406 126.851562 72.667969 135.417969 73.769531 144.882812 C 74.875 154.347656 68.097656 162.914062 58.632812 164.019531 C 49.171875 165.121094 42.394531 173.6875 43.496094 183.152344 L 44.296875 190.007812 C 45.402344 199.472656 53.96875 206.246094 63.433594 205.144531 C 72.894531 204.039062 81.460938 210.816406 82.566406 220.28125 C 83.671875 229.742188 92.238281 236.519531 101.703125 235.417969 L 108.554688 234.617188 C 118.019531 233.511719 124.796875 224.945312 123.691406 215.480469 C 122.589844 206.019531 129.363281 197.453125 138.828125 196.347656 C 148.292969 195.242188 155.070312 186.675781 153.964844 177.210938 L 153.164062 170.359375 C 152.0625 160.894531 143.496094 154.117188 134.03125 155.222656 C 124.566406 156.324219 116 149.550781 114.894531 140.085938 C 113.792969 130.621094 105.226562 123.84375 95.761719 124.949219 " clip-rule="nonzero"/></clipPath><clipPath id="1f2fccd7af"><path d="M 43 124 L 154 124 L 154 236 L 43 236 Z M 43 124 " clip-rule="nonzero"/></clipPath><clipPath id="155560cd41"><path d="M 37.5 131.746094 L 146.992188 118.972656 L 159.765625 228.460938 L 50.273438 241.238281 Z M 37.5 131.746094 " clip-rule="nonzero"/></clipPath><clipPath id="f45f2074af"><path d="M 37.5 131.746094 L 146.992188 118.972656 L 159.765625 228.460938 L 50.273438 241.238281 Z M 37.5 131.746094 " clip-rule="nonzero"/></clipPath><clipPath id="d7eb2c7a13"><path d="M 95.667969 124.960938 L 88.824219 125.757812 C 79.375 126.859375 72.609375 135.414062 73.710938 144.863281 C 74.8125 154.3125 68.046875 162.863281 58.601562 163.964844 C 49.152344 165.066406 42.386719 173.621094 43.488281 183.070312 L 44.285156 189.914062 C 45.386719 199.363281 53.941406 206.128906 63.390625 205.023438 C 72.839844 203.921875 81.390625 210.6875 82.492188 220.136719 C 83.597656 229.585938 92.148438 236.351562 101.597656 235.25 L 108.441406 234.449219 C 117.890625 233.347656 124.65625 224.796875 123.554688 215.347656 C 122.449219 205.898438 129.214844 197.34375 138.664062 196.242188 C 148.113281 195.140625 154.878906 186.585938 153.777344 177.140625 L 152.976562 170.296875 C 151.875 160.847656 143.324219 154.082031 133.875 155.183594 C 124.425781 156.285156 115.875 149.519531 114.769531 140.070312 C 113.667969 130.625 105.117188 123.859375 95.667969 124.960938 " clip-rule="nonzero"/></clipPath><clipPath id="d6320bab6c"><path d="M 89 139 L 100 139 L 100 149 L 89 149 Z M 89 139 " clip-rule="nonzero"/></clipPath><clipPath id="72e8078a47"><path d="M 88.789062 139.617188 L 99.066406 138.417969 L 100.160156 147.769531 L 89.882812 148.96875 Z M 88.789062 139.617188 " clip-rule="nonzero"/></clipPath><clipPath id="392e751a75"><path d="M 95.902344 139.878906 L 99.371094 144.585938 C 99.832031 145.210938 99.925781 146.03125 99.617188 146.742188 C 99.308594 147.453125 98.644531 147.949219 97.871094 148.039062 L 92.167969 148.703125 C 91.398438 148.792969 90.636719 148.464844 90.171875 147.84375 C 89.707031 147.222656 89.609375 146.402344 89.914062 145.6875 L 92.207031 140.308594 C 92.507812 139.601562 93.164062 139.109375 93.929688 139.019531 C 94.691406 138.933594 95.445312 139.257812 95.902344 139.878906 " clip-rule="nonzero"/></clipPath><clipPath id="7b76e593a1"><path d="M 97 211 L 108 211 L 108 222 L 97 222 Z M 97 211 " clip-rule="nonzero"/></clipPath><clipPath id="50be665174"><path d="M 108.671875 220.738281 L 98.394531 221.9375 L 97.300781 212.585938 L 107.578125 211.386719 Z M 108.671875 220.738281 " clip-rule="nonzero"/></clipPath><clipPath id="8950c9c330"><path d="M 101.558594 220.476562 L 98.089844 215.773438 C 97.628906 215.148438 97.535156 214.324219 97.84375 213.613281 C 98.152344 212.902344 98.816406 212.410156 99.589844 212.320312 L 105.292969 211.652344 C 106.066406 211.5625 106.824219 211.890625 107.289062 212.511719 C 107.753906 213.132812 107.851562 213.953125 107.546875 214.667969 L 105.253906 220.046875 C 104.953125 220.753906 104.296875 221.246094 103.53125 221.335938 C 102.769531 221.425781 102.015625 221.097656 101.558594 220.476562 " clip-rule="nonzero"/></clipPath><clipPath id="6b1a00b936"><path d="M 58 179 L 69 179 L 69 190 L 58 190 Z M 58 179 " clip-rule="nonzero"/></clipPath><clipPath id="014a2a36e8"><path d="M 58.996094 190.023438 L 57.796875 179.746094 L 67.148438 178.652344 L 68.347656 188.929688 Z M 58.996094 190.023438 " clip-rule="nonzero"/></clipPath><clipPath id="4b1990f54a"><path d="M 59.257812 182.910156 L 63.964844 179.441406 C 64.589844 178.980469 65.410156 178.886719 66.121094 179.195312 C 66.832031 179.503906 67.328125 180.167969 67.417969 180.9375 L 68.082031 186.644531 C 68.171875 187.414062 67.84375 188.175781 67.222656 188.640625 C 66.601562 189.105469 65.78125 189.203125 65.066406 188.898438 L 59.6875 186.605469 C 58.980469 186.304688 58.488281 185.648438 58.398438 184.882812 C 58.3125 184.121094 58.636719 183.367188 59.257812 182.910156 " clip-rule="nonzero"/></clipPath><clipPath id="d36441109a"><path d="M 129 171 L 140 171 L 140 182 L 129 182 Z M 129 171 " clip-rule="nonzero"/></clipPath><clipPath id="da7982c0ed"><path d="M 138.464844 170.335938 L 139.664062 180.613281 L 130.3125 181.703125 L 129.113281 171.425781 Z M 138.464844 170.335938 " clip-rule="nonzero"/></clipPath><clipPath id="86e78cf991"><path d="M 138.203125 177.445312 L 133.496094 180.917969 C 132.875 181.378906 132.050781 181.46875 131.339844 181.160156 C 130.628906 180.851562 130.132812 180.1875 130.042969 179.417969 L 129.378906 173.710938 C 129.289062 172.941406 129.617188 172.179688 130.238281 171.714844 C 130.859375 171.25 131.679688 171.152344 132.394531 171.457031 L 137.773438 173.75 C 138.480469 174.050781 138.972656 174.710938 139.0625 175.472656 C 139.148438 176.238281 138.824219 176.992188 138.203125 177.445312 " clip-rule="nonzero"/></clipPath></defs><g clip-path="url(#300101e2e4)"><g clip-path="url(#a6044305ae)"><g clip-path="url(#c587ba4fa9)"><path fill="#ffffff" d="M 37.5 131.746094 L 147.167969 118.953125 L 159.964844 228.621094 L 50.292969 241.414062 Z M 37.5 131.746094 " fill-opacity="1" fill-rule="nonzero"/></g></g></g><g clip-path="url(#1f2fccd7af)"><g clip-path="url(#155560cd41)"><g clip-path="url(#f45f2074af)"><g clip-path="url(#d7eb2c7a13)"><path stroke-linecap="butt" transform="matrix(0.738632, -0.086173, 0.086173, 0.738632, 37.500064, 131.746016)" fill="none" stroke-linejoin="miter" d="M 78.750695 0.00149809 L 69.485497 -0.000580212 C 56.692762 -0.00169867 46.323033 10.37031 46.321915 23.163046 C 46.320796 35.955781 35.951676 46.322573 23.164158 46.322063 C 10.371423 46.320944 0.00169448 56.692953 0.000576019 69.485689 L -0.00150228 78.750887 C -0.00262074 91.543622 10.369388 101.913351 23.162732 101.909252 C 35.955468 101.91037 46.322259 112.27949 46.321141 125.072226 C 46.32524 137.86557 56.692031 148.23469 69.484767 148.235808 L 78.750574 148.232669 C 91.543309 148.233787 101.912429 137.866996 101.913547 125.074261 C 101.909448 112.280917 112.279177 101.908908 125.071912 101.910026 C 137.864648 101.911144 148.234376 91.539135 148.234886 78.751618 L 148.231747 69.485811 C 148.232865 56.693075 137.866074 46.323955 125.073339 46.322837 C 112.280603 46.321718 101.913812 35.952598 101.909713 23.159254 C 101.910222 10.371737 91.543431 0.00261655 78.750695 0.00149809 " stroke="#000000" stroke-width="18.1252" stroke-opacity="1" stroke-miterlimit="4"/></g></g></g></g><g clip-path="url(#d6320bab6c)"><g clip-path="url(#72e8078a47)"><g clip-path="url(#392e751a75)"><path fill="#000000" d="M 87.097656 137.628906 L 100.253906 136.09375 L 101.597656 147.601562 L 88.441406 149.136719 Z M 87.097656 137.628906 " fill-opacity="1" fill-rule="nonzero"/></g></g></g><g clip-path="url(#7b76e593a1)"><g clip-path="url(#50be665174)"><g clip-path="url(#8950c9c330)"><path fill="#000000" d="M 110.363281 222.730469 L 97.207031 224.265625 L 95.863281 212.753906 L 109.019531 211.21875 Z M 110.363281 222.730469 " fill-opacity="1" fill-rule="nonzero"/></g></g></g><g clip-path="url(#6b1a00b936)"><g clip-path="url(#014a2a36e8)"><g clip-path="url(#4b1990f54a)"><path fill="#000000" d="M 57.007812 191.714844 L 55.472656 178.558594 L 66.980469 177.214844 L 68.515625 190.371094 Z M 57.007812 191.714844 " fill-opacity="1" fill-rule="nonzero"/></g></g></g><g clip-path="url(#d36441109a)"><g clip-path="url(#da7982c0ed)"><g clip-path="url(#86e78cf991)"><path fill="#000000" d="M 140.457031 168.644531 L 141.988281 181.800781 L 130.480469 183.140625 L 128.945312 169.988281 Z M 140.457031 168.644531 " fill-opacity="1" fill-rule="nonzero"/></g></g></g><g fill="#000000" fill-opacity="1"><g transform="translate(159.96285, 174.633255)"><g><path d="M 7.324219 0 C 7.78125 0 8.007812 -0.246094 8.007812 -0.71875 L 8.007812 -25.285156 C 8.007812 -25.761719 7.78125 -26.003906 7.324219 -26.003906 L 3.539062 -26.003906 C 3.066406 -26.003906 2.839844 -25.761719 2.839844 -25.285156 L 2.839844 -0.71875 C 2.839844 -0.246094 3.066406 0 3.539062 0 Z M 7.324219 0 "/></g></g></g><g fill="#000000" fill-opacity="1"><g transform="translate(170.439342, 174.633255)"><g><path d="M 6.746094 0 C 7.308594 0 7.585938 -0.261719 7.585938 -0.804688 L 7.585938 -9.9375 L 14.542969 -0.402344 C 14.753906 -0.140625 14.984375 0 15.210938 0 L 18.996094 0 C 19.574219 0 19.871094 -0.261719 19.871094 -0.804688 L 19.871094 -16.367188 C 19.871094 -16.859375 19.433594 -17.191406 18.996094 -17.191406 L 15.875 -17.191406 C 15.421875 -17.191406 15.15625 -16.964844 15.089844 -16.488281 L 15.089844 -7.464844 L 8.304688 -16.789062 C 8.113281 -17.050781 7.851562 -17.191406 7.535156 -17.191406 L 3.609375 -17.191406 C 3.121094 -17.191406 2.804688 -16.824219 2.804688 -16.332031 L 2.804688 -0.804688 C 2.804688 -0.261719 3.066406 0 3.609375 0 Z M 6.746094 0 "/></g></g></g><g fill="#000000" fill-opacity="1"><g transform="translate(192.583805, 174.633255)"><g><path d="M 10.144531 0 C 14.894531 0 18.292969 -4.046875 18.292969 -8.640625 C 18.292969 -13.371094 14.824219 -17.121094 10.042969 -17.226562 L 3.59375 -17.226562 C 3.050781 -17.226562 2.769531 -16.945312 2.769531 -16.402344 L 2.769531 -0.804688 C 2.769531 -0.316406 2.996094 -0.015625 3.46875 0 Z M 7.535156 -4.066406 L 7.535156 -13.230469 L 9.269531 -13.230469 C 11.882812 -13.230469 13.667969 -11.269531 13.667969 -8.691406 C 13.667969 -6.117188 12.089844 -4.066406 9.394531 -4.066406 Z M 7.535156 -4.066406 "/></g></g></g><g fill="#000000" fill-opacity="1"><g transform="translate(210.768863, 174.633255)"><g><path d="M 6.640625 0 C 7.21875 0 7.519531 -0.28125 7.519531 -0.824219 L 7.519531 -16.382812 C 7.519531 -16.859375 7.078125 -17.226562 6.640625 -17.226562 L 3.609375 -17.226562 C 3.101562 -17.226562 2.785156 -16.875 2.785156 -16.382812 L 2.785156 -0.824219 C 2.785156 -0.28125 3.066406 0 3.609375 0 Z M 6.640625 0 "/></g></g></g><g fill="#000000" fill-opacity="1"><g transform="translate(220.737285, 174.633255)"><g><path d="M 15.15625 0 C 15.667969 0 15.980469 -0.332031 15.980469 -0.804688 L 15.980469 -3.292969 C 15.980469 -3.835938 15.648438 -4.171875 15.15625 -4.171875 L 7.5 -4.171875 L 7.5 -6.710938 L 13.246094 -6.710938 C 13.738281 -6.710938 14.054688 -7.042969 14.054688 -7.535156 L 14.054688 -9.65625 C 14.054688 -10.199219 13.738281 -10.515625 13.246094 -10.515625 L 7.5 -10.515625 L 7.5 -13.125 L 14.773438 -13.125 C 15.261719 -13.125 15.597656 -13.421875 15.597656 -13.964844 L 15.597656 -16.367188 C 15.597656 -16.859375 15.261719 -17.191406 14.773438 -17.191406 L 3.59375 -17.191406 C 3.050781 -17.191406 2.785156 -16.910156 2.785156 -16.367188 L 2.785156 -0.804688 C 2.785156 -0.316406 3.03125 -0.015625 3.46875 0 Z M 15.15625 0 "/></g></g></g><g fill="#000000" fill-opacity="1"><g transform="translate(159.96285, 203.883253)"><g><path d="M 14.613281 0.015625 C 15.019531 0.015625 15.316406 -0.191406 15.507812 -0.628906 L 25.179688 -25.234375 C 25.234375 -25.339844 25.25 -25.445312 25.25 -25.566406 C 25.25 -25.863281 25.042969 -26.023438 24.707031 -26.023438 L 20.660156 -26.023438 C 20.238281 -26.023438 19.960938 -25.796875 19.800781 -25.339844 L 13.125 -7.183594 L 6.414062 -25.355469 C 6.257812 -25.796875 5.957031 -26.023438 5.554688 -26.023438 L 1.558594 -26.023438 C 1.210938 -26.023438 1.015625 -25.882812 1.015625 -25.601562 C 1.015625 -25.480469 1.035156 -25.375 1.085938 -25.269531 L 10.777344 -0.628906 C 10.933594 -0.191406 11.234375 0.015625 11.671875 0.015625 Z M 14.613281 0.015625 "/></g></g></g><g fill="#000000" fill-opacity="1"><g transform="translate(184.770272, 203.883253)"><g><path d="M 6.640625 0 C 7.21875 0 7.519531 -0.28125 7.519531 -0.824219 L 7.519531 -16.382812 C 7.519531 -16.859375 7.078125 -17.226562 6.640625 -17.226562 L 3.609375 -17.226562 C 3.101562 -17.226562 2.785156 -16.875 2.785156 -16.382812 L 2.785156 -0.824219 C 2.785156 -0.28125 3.066406 0 3.609375 0 Z M 6.640625 0 "/></g></g></g><g fill="#000000" fill-opacity="1"><g transform="translate(194.738691, 203.883253)"><g><path d="M 10.144531 0 C 14.894531 0 18.292969 -4.046875 18.292969 -8.640625 C 18.292969 -13.371094 14.824219 -17.121094 10.042969 -17.226562 L 3.59375 -17.226562 C 3.050781 -17.226562 2.769531 -16.945312 2.769531 -16.402344 L 2.769531 -0.804688 C 2.769531 -0.316406 2.996094 -0.015625 3.46875 0 Z M 7.535156 -4.066406 L 7.535156 -13.230469 L 9.269531 -13.230469 C 11.882812 -13.230469 13.667969 -11.269531 13.667969 -8.691406 C 13.667969 -6.117188 12.089844 -4.066406 9.394531 -4.066406 Z M 7.535156 -4.066406 "/></g></g></g><g fill="#000000" fill-opacity="1"><g transform="translate(212.923752, 203.883253)"><g><path d="M 15.15625 0 C 15.667969 0 15.980469 -0.332031 15.980469 -0.804688 L 15.980469 -3.292969 C 15.980469 -3.835938 15.648438 -4.171875 15.15625 -4.171875 L 7.5 -4.171875 L 7.5 -6.710938 L 13.246094 -6.710938 C 13.738281 -6.710938 14.054688 -7.042969 14.054688 -7.535156 L 14.054688 -9.65625 C 14.054688 -10.199219 13.738281 -10.515625 13.246094 -10.515625 L 7.5 -10.515625 L 7.5 -13.125 L 14.773438 -13.125 C 15.261719 -13.125 15.597656 -13.421875 15.597656 -13.964844 L 15.597656 -16.367188 C 15.597656 -16.859375 15.261719 -17.191406 14.773438 -17.191406 L 3.59375 -17.191406 C 3.050781 -17.191406 2.785156 -16.910156 2.785156 -16.367188 L 2.785156 -0.804688 C 2.785156 -0.316406 3.03125 -0.015625 3.46875 0 Z M 15.15625 0 "/></g></g></g><g fill="#000000" fill-opacity="1"><g transform="translate(229.917483, 203.883253)"><g><path d="M 10.269531 0.367188 C 15.261719 0.367188 19.347656 -3.523438 19.347656 -8.550781 C 19.347656 -13.582031 15.28125 -17.558594 10.269531 -17.558594 C 5.257812 -17.558594 1.191406 -13.582031 1.191406 -8.550781 C 1.191406 -3.523438 5.292969 0.367188 10.269531 0.367188 Z M 10.285156 -3.960938 C 7.761719 -3.960938 5.871094 -6.0625 5.871094 -8.535156 C 5.871094 -10.988281 7.78125 -13.125 10.285156 -13.125 C 12.792969 -13.125 14.71875 -10.988281 14.71875 -8.535156 C 14.71875 -6.046875 12.808594 -3.960938 10.285156 -3.960938 Z M 10.285156 -3.960938 "/></g></g></g><g fill="#000000" fill-opacity="1"><g transform="translate(250.239923, 203.883253)"><g><path d="M 15 0.351562 C 17.890625 0.351562 20.75 -0.597656 23.132812 -2.226562 C 23.375 -2.417969 23.5 -2.679688 23.5 -2.996094 L 23.5 -10.933594 C 23.5 -11.441406 23.21875 -11.652344 22.816406 -11.652344 L 19.695312 -11.652344 C 19.222656 -11.652344 18.996094 -11.40625 18.996094 -10.933594 L 18.996094 -5.574219 C 17.890625 -4.75 16.316406 -4.382812 14.824219 -4.382812 C 10.109375 -4.382812 6.5 -8.464844 6.5 -13.074219 C 6.5 -17.890625 10.199219 -21.5 15 -21.5 C 16.875 -21.5 18.453125 -20.886719 19.925781 -19.785156 C 20.082031 -19.660156 20.222656 -19.609375 20.378906 -19.609375 C 20.589844 -19.609375 20.765625 -19.695312 20.90625 -19.890625 L 22.972656 -22.867188 C 23.0625 -22.992188 23.113281 -23.113281 23.113281 -23.238281 C 23.113281 -23.429688 23.007812 -23.605469 22.78125 -23.78125 C 20.519531 -25.515625 18.015625 -26.390625 14.949219 -26.390625 C 7.484375 -26.390625 1.542969 -20.46875 1.542969 -13.074219 C 1.542969 -5.609375 7.640625 0.351562 15 0.351562 Z M 15 0.351562 "/></g></g></g><g fill="#000000" fill-opacity="1"><g transform="translate(275.327654, 203.883253)"><g><path d="M 18.121094 -0.789062 C 15.824219 -6.660156 13.757812 -11.933594 11.953125 -16.613281 C 11.898438 -16.664062 11.863281 -16.753906 11.828125 -16.839844 C 11.792969 -16.910156 11.742188 -16.980469 11.6875 -17.03125 C 11.546875 -17.15625 11.355469 -17.207031 11.128906 -17.207031 L 7.621094 -17.207031 C 7.183594 -17.207031 6.957031 -17.015625 6.800781 -16.664062 L 0.613281 -0.769531 C 0.597656 -0.753906 0.597656 -0.699219 0.578125 -0.648438 C 0.5625 -0.613281 0.5625 -0.542969 0.5625 -0.421875 C 0.5625 -0.140625 0.734375 0 1.085938 0 L 4.800781 0 C 5.203125 0 5.46875 -0.191406 5.625 -0.578125 C 5.816406 -1.121094 6.0625 -1.804688 6.34375 -2.664062 L 12.371094 -2.664062 L 12.863281 -1.191406 C 13.125 -0.472656 13.40625 0 13.949219 0 L 17.644531 0 C 17.996094 0 18.171875 -0.140625 18.171875 -0.421875 C 18.171875 -0.527344 18.15625 -0.648438 18.101562 -0.789062 Z M 7.621094 -6.5 L 9.128906 -10.742188 L 9.375 -11.390625 L 11.09375 -6.5 Z M 7.621094 -6.5 "/></g></g></g><g fill="#000000" fill-opacity="1"><g transform="translate(293.740464, 203.883253)"><g><path d="M 5.257812 0 C 5.78125 0 6.0625 -0.261719 6.097656 -0.804688 C 6.152344 -1.875 6.257812 -3.46875 6.394531 -5.589844 C 6.464844 -6.640625 6.554688 -8.234375 6.675781 -10.355469 L 10.214844 -1.664062 C 10.550781 -1.191406 10.707031 -0.964844 10.96875 -0.964844 L 14.054688 -0.964844 C 14.335938 -0.964844 14.597656 -1.210938 14.789062 -1.628906 C 15.191406 -2.574219 15.789062 -4.011719 16.578125 -5.957031 C 17.050781 -7.148438 17.644531 -8.585938 18.347656 -10.269531 L 18.398438 -9.796875 C 18.398438 -9.601562 18.398438 -9.429688 18.417969 -9.304688 L 18.925781 -0.804688 C 18.960938 -0.261719 19.242188 0 19.785156 0 L 23.0625 0 C 23.605469 0 23.867188 -0.261719 23.867188 -0.804688 L 22.675781 -16.367188 C 22.625 -16.839844 22.34375 -17.191406 21.871094 -17.191406 L 16.929688 -17.191406 C 16.578125 -17.191406 16.28125 -16.929688 16.15625 -16.507812 C 14.984375 -13.546875 13.757812 -10.566406 12.511719 -7.554688 L 10.09375 -13.511719 C 9.726562 -14.40625 9.304688 -15.402344 8.867188 -16.523438 L 8.867188 -16.507812 C 8.746094 -16.929688 8.445312 -17.191406 8.097656 -17.191406 L 3.152344 -17.191406 C 2.679688 -17.191406 2.402344 -16.839844 2.347656 -16.367188 L 1.578125 -6.046875 C 1.453125 -4.695312 1.367188 -3.488281 1.296875 -2.4375 L 1.15625 -0.804688 C 1.175781 -0.261719 1.4375 0 1.960938 0 Z M 5.257812 0 "/></g></g></g><g fill="#000000" fill-opacity="1"><g transform="translate(318.337649, 203.883253)"><g><path d="M 15.15625 0 C 15.667969 0 15.980469 -0.332031 15.980469 -0.804688 L 15.980469 -3.292969 C 15.980469 -3.835938 15.648438 -4.171875 15.15625 -4.171875 L 7.5 -4.171875 L 7.5 -6.710938 L 13.246094 -6.710938 C 13.738281 -6.710938 14.054688 -7.042969 14.054688 -7.535156 L 14.054688 -9.65625 C 14.054688 -10.199219 13.738281 -10.515625 13.246094 -10.515625 L 7.5 -10.515625 L 7.5 -13.125 L 14.773438 -13.125 C 15.261719 -13.125 15.597656 -13.421875 15.597656 -13.964844 L 15.597656 -16.367188 C 15.597656 -16.859375 15.261719 -17.191406 14.773438 -17.191406 L 3.59375 -17.191406 C 3.050781 -17.191406 2.785156 -16.910156 2.785156 -16.367188 L 2.785156 -0.804688 C 2.785156 -0.316406 3.03125 -0.015625 3.46875 0 Z M 15.15625 0 "/></g></g></g><g fill="#000000" fill-opacity="1"><g transform="translate(159.96285, 230.133251)"><g><path d="M 10.171875 0.285156 C 14.167969 0.285156 18.511719 -2.148438 18.511719 -6.582031 C 18.511719 -11.015625 14.695312 -12.5 11.074219 -13.570312 C 9.558594 -14.003906 8.640625 -14.289062 7.933594 -14.695312 C 7.105469 -15.132812 6.703125 -15.671875 6.703125 -16.410156 C 6.703125 -18.4375 8.535156 -18.8125 10.171875 -18.8125 C 11.8125 -18.8125 13.269531 -17.761719 14.46875 -16.753906 C 14.769531 -16.5 15.011719 -16.378906 15.207031 -16.378906 C 15.34375 -16.378906 15.476562 -16.4375 15.613281 -16.558594 L 17.265625 -18.347656 C 17.460938 -18.542969 17.550781 -18.753906 17.550781 -18.949219 C 17.550781 -19.144531 17.460938 -19.324219 17.28125 -19.503906 C 15.507812 -21.335938 12.90625 -22.71875 10.308594 -22.71875 C 6.476562 -22.71875 2.195312 -20.917969 2.195312 -16.5 C 2.195312 -12.382812 6.296875 -10.699219 9.660156 -9.707031 L 10.066406 -9.601562 C 11.195312 -9.285156 11.75 -9.121094 12.367188 -8.773438 C 13.375 -8.21875 13.871094 -7.542969 13.871094 -6.714844 C 13.871094 -4.734375 11.8125 -3.785156 10.082031 -3.785156 C 7.992188 -3.785156 6.296875 -4.957031 4.867188 -6.371094 C 4.628906 -6.597656 4.417969 -6.703125 4.238281 -6.703125 C 4.085938 -6.703125 3.953125 -6.640625 3.832031 -6.519531 L 1.816406 -4.554688 C 1.652344 -4.386719 1.578125 -4.238281 1.578125 -4.101562 C 1.578125 -3.875 1.816406 -3.5625 1.953125 -3.410156 C 4.011719 -1.171875 7.105469 0.285156 10.171875 0.285156 Z M 10.171875 0.285156 "/></g></g></g><g fill="#000000" fill-opacity="1"><g transform="translate(178.92232, 230.133251)"><g><path d="M 8.324219 0.332031 C 11.75 0.332031 15.265625 -2.074219 15.265625 -5.753906 L 15.265625 -13.871094 C 15.265625 -14.410156 14.890625 -14.753906 14.394531 -14.753906 L 11.929688 -14.753906 C 11.316406 -14.753906 11.089844 -14.484375 11.089844 -13.898438 L 11.089844 -6.296875 C 11.089844 -4.6875 9.949219 -3.605469 8.355469 -3.605469 C 6.761719 -3.605469 5.621094 -4.6875 5.621094 -6.296875 L 5.621094 -13.898438 C 5.621094 -14.484375 5.394531 -14.753906 4.777344 -14.753906 L 2.3125 -14.753906 C 1.816406 -14.753906 1.441406 -14.410156 1.441406 -13.871094 L 1.441406 -5.753906 C 1.441406 -2.074219 4.882812 0.332031 8.324219 0.332031 Z M 8.324219 0.332031 "/></g></g></g><g fill="#000000" fill-opacity="1"><g transform="translate(195.342827, 230.133251)"><g><path d="M 4.507812 0 C 4.957031 0 5.199219 -0.226562 5.230469 -0.691406 C 5.273438 -1.609375 5.363281 -2.976562 5.484375 -4.792969 C 5.542969 -5.695312 5.621094 -7.0625 5.726562 -8.878906 L 8.761719 -1.425781 C 9.046875 -1.023438 9.179688 -0.828125 9.40625 -0.828125 L 12.050781 -0.828125 C 12.292969 -0.828125 12.515625 -1.035156 12.683594 -1.398438 C 13.027344 -2.207031 13.539062 -3.441406 14.214844 -5.109375 C 14.621094 -6.128906 15.132812 -7.363281 15.734375 -8.804688 L 15.777344 -8.398438 C 15.777344 -8.234375 15.777344 -8.085938 15.792969 -7.980469 L 16.226562 -0.691406 C 16.257812 -0.226562 16.5 0 16.964844 0 L 19.773438 0 C 20.242188 0 20.464844 -0.226562 20.464844 -0.691406 L 19.445312 -14.035156 C 19.398438 -14.441406 19.160156 -14.742188 18.753906 -14.742188 L 14.515625 -14.742188 C 14.214844 -14.742188 13.960938 -14.515625 13.855469 -14.15625 C 12.847656 -11.617188 11.796875 -9.0625 10.730469 -6.476562 L 8.65625 -11.585938 C 8.339844 -12.351562 7.980469 -13.207031 7.601562 -14.167969 L 7.601562 -14.15625 C 7.5 -14.515625 7.242188 -14.742188 6.941406 -14.742188 L 2.703125 -14.742188 C 2.300781 -14.742188 2.058594 -14.441406 2.011719 -14.035156 L 1.351562 -5.183594 C 1.246094 -4.027344 1.171875 -2.988281 1.113281 -2.089844 L 0.992188 -0.691406 C 1.007812 -0.226562 1.230469 0 1.683594 0 Z M 4.507812 0 "/></g></g></g><g fill="#000000" fill-opacity="1"><g transform="translate(216.435611, 230.133251)"><g><path d="M 4.507812 0 C 4.957031 0 5.199219 -0.226562 5.230469 -0.691406 C 5.273438 -1.609375 5.363281 -2.976562 5.484375 -4.792969 C 5.542969 -5.695312 5.621094 -7.0625 5.726562 -8.878906 L 8.761719 -1.425781 C 9.046875 -1.023438 9.179688 -0.828125 9.40625 -0.828125 L 12.050781 -0.828125 C 12.292969 -0.828125 12.515625 -1.035156 12.683594 -1.398438 C 13.027344 -2.207031 13.539062 -3.441406 14.214844 -5.109375 C 14.621094 -6.128906 15.132812 -7.363281 15.734375 -8.804688 L 15.777344 -8.398438 C 15.777344 -8.234375 15.777344 -8.085938 15.792969 -7.980469 L 16.226562 -0.691406 C 16.257812 -0.226562 16.5 0 16.964844 0 L 19.773438 0 C 20.242188 0 20.464844 -0.226562 20.464844 -0.691406 L 19.445312 -14.035156 C 19.398438 -14.441406 19.160156 -14.742188 18.753906 -14.742188 L 14.515625 -14.742188 C 14.214844 -14.742188 13.960938 -14.515625 13.855469 -14.15625 C 12.847656 -11.617188 11.796875 -9.0625 10.730469 -6.476562 L 8.65625 -11.585938 C 8.339844 -12.351562 7.980469 -13.207031 7.601562 -14.167969 L 7.601562 -14.15625 C 7.5 -14.515625 7.242188 -14.742188 6.941406 -14.742188 L 2.703125 -14.742188 C 2.300781 -14.742188 2.058594 -14.441406 2.011719 -14.035156 L 1.351562 -5.183594 C 1.246094 -4.027344 1.171875 -2.988281 1.113281 -2.089844 L 0.992188 -0.691406 C 1.007812 -0.226562 1.230469 0 1.683594 0 Z M 4.507812 0 "/></g></g></g><g fill="#000000" fill-opacity="1"><g transform="translate(237.528398, 230.133251)"><g><path d="M 5.695312 0 C 6.191406 0 6.445312 -0.242188 6.445312 -0.707031 L 6.445312 -14.050781 C 6.445312 -14.457031 6.070312 -14.769531 5.695312 -14.769531 L 3.09375 -14.769531 C 2.660156 -14.769531 2.390625 -14.46875 2.390625 -14.050781 L 2.390625 -0.707031 C 2.390625 -0.242188 2.628906 0 3.09375 0 Z M 5.695312 0 "/></g></g></g><g fill="#000000" fill-opacity="1"><g transform="translate(246.076642, 230.133251)"><g><path d="M 7.695312 0 C 8.1875 0 8.429688 -0.226562 8.429688 -0.691406 L 8.429688 -10.984375 L 11.601562 -10.984375 C 11.945312 -10.984375 12.15625 -11.316406 12.15625 -11.601562 L 12.15625 -14.167969 C 12.15625 -14.546875 11.976562 -14.742188 11.601562 -14.742188 L 0.960938 -14.742188 C 0.585938 -14.742188 0.40625 -14.546875 0.40625 -14.167969 L 0.40625 -11.601562 C 0.40625 -11.195312 0.585938 -10.984375 0.960938 -10.984375 L 4.101562 -10.984375 L 4.101562 -0.691406 C 4.101562 -0.226562 4.328125 0 4.792969 0 Z M 7.695312 0 "/></g></g></g><g fill="#000000" fill-opacity="1"><g transform="translate(258.425806, 230.133251)"><g/></g></g><g fill="#000000" fill-opacity="1"><g transform="translate(267.529913, 230.133251)"><g><path d="M 2.597656 0 C 4.222656 -0.015625 5.84375 -0.015625 7.484375 -0.015625 L 9.496094 -0.015625 C 11.121094 0 12.742188 0 14.378906 0 L 16.394531 0 C 16.800781 0 17.101562 -0.359375 17.101562 -0.734375 L 17.101562 -3.125 C 17.101562 -3.5625 16.8125 -3.800781 16.394531 -3.800781 C 15.71875 -3.785156 14.710938 -3.785156 13.359375 -3.785156 L 12.109375 -3.785156 C 11.644531 -3.800781 10.925781 -3.800781 9.976562 -3.800781 C 9.03125 -3.800781 8.308594 -3.800781 7.828125 -3.785156 L 13.132812 -9.136719 C 13.929688 -9.933594 14.574219 -10.625 15.070312 -11.179688 C 16.226562 -12.5 16.800781 -14.003906 16.8125 -15.6875 C 16.695312 -19.804688 13.132812 -22.554688 9.179688 -22.554688 C 6.671875 -22.554688 4.449219 -21.320312 2.976562 -19.324219 C 2.75 -18.964844 2.238281 -18.105469 2.238281 -17.699219 C 2.253906 -17.503906 2.3125 -17.355469 2.554688 -17.234375 L 4.238281 -16.378906 C 4.523438 -16.242188 4.734375 -16.167969 4.898438 -16.167969 C 5.125 -16.167969 5.320312 -16.289062 5.484375 -16.515625 C 6.371094 -17.925781 7.558594 -18.675781 9.03125 -18.78125 C 11.015625 -18.78125 12.757812 -17.597656 12.757812 -15.476562 C 12.757812 -14.636719 12.367188 -13.808594 11.570312 -12.984375 L 1.96875 -2.839844 C 1.894531 -2.703125 1.863281 -2.585938 1.863281 -2.449219 L 1.863281 -0.734375 C 1.863281 -0.332031 2.222656 0 2.597656 0 Z M 2.597656 0 "/></g></g></g><g fill="#000000" fill-opacity="1"><g transform="translate(285.738205, 230.133251)"><g><path d="M 12.742188 0.285156 C 19.054688 0.285156 24.34375 -4.839844 24.34375 -11.132812 C 24.34375 -17.503906 19.007812 -22.585938 12.742188 -22.585938 C 6.386719 -22.585938 1.324219 -17.402344 1.324219 -11.132812 C 1.324219 -4.824219 6.429688 0.285156 12.742188 0.285156 Z M 12.757812 -3.890625 C 8.746094 -3.890625 5.636719 -7.167969 5.636719 -11.148438 C 5.636719 -15.101562 8.761719 -18.4375 12.757812 -18.4375 C 16.738281 -18.4375 20.058594 -15.132812 20.058594 -11.148438 C 20.058594 -7.136719 16.769531 -3.890625 12.757812 -3.890625 Z M 12.757812 -3.890625 "/></g></g></g><g fill="#000000" fill-opacity="1"><g transform="translate(311.067595, 230.133251)"><g><path d="M 2.597656 0 C 4.222656 -0.015625 5.84375 -0.015625 7.484375 -0.015625 L 9.496094 -0.015625 C 11.121094 0 12.742188 0 14.378906 0 L 16.394531 0 C 16.800781 0 17.101562 -0.359375 17.101562 -0.734375 L 17.101562 -3.125 C 17.101562 -3.5625 16.8125 -3.800781 16.394531 -3.800781 C 15.71875 -3.785156 14.710938 -3.785156 13.359375 -3.785156 L 12.109375 -3.785156 C 11.644531 -3.800781 10.925781 -3.800781 9.976562 -3.800781 C 9.03125 -3.800781 8.308594 -3.800781 7.828125 -3.785156 L 13.132812 -9.136719 C 13.929688 -9.933594 14.574219 -10.625 15.070312 -11.179688 C 16.226562 -12.5 16.800781 -14.003906 16.8125 -15.6875 C 16.695312 -19.804688 13.132812 -22.554688 9.179688 -22.554688 C 6.671875 -22.554688 4.449219 -21.320312 2.976562 -19.324219 C 2.75 -18.964844 2.238281 -18.105469 2.238281 -17.699219 C 2.253906 -17.503906 2.3125 -17.355469 2.554688 -17.234375 L 4.238281 -16.378906 C 4.523438 -16.242188 4.734375 -16.167969 4.898438 -16.167969 C 5.125 -16.167969 5.320312 -16.289062 5.484375 -16.515625 C 6.371094 -17.925781 7.558594 -18.675781 9.03125 -18.78125 C 11.015625 -18.78125 12.757812 -17.597656 12.757812 -15.476562 C 12.757812 -14.636719 12.367188 -13.808594 11.570312 -12.984375 L 1.96875 -2.839844 C 1.894531 -2.703125 1.863281 -2.585938 1.863281 -2.449219 L 1.863281 -0.734375 C 1.863281 -0.332031 2.222656 0 2.597656 0 Z M 2.597656 0 "/></g></g></g><g fill="#000000" fill-opacity="1"><g transform="translate(329.275888, 230.133251)"><g><path d="M 8.535156 0.316406 C 12.578125 0.316406 16.019531 -2.71875 16.019531 -6.851562 C 16.019531 -9.4375 14.695312 -11.285156 12.5625 -12.621094 C 13.988281 -13.808594 14.394531 -14.800781 14.394531 -16.617188 C 14.394531 -19.894531 11.644531 -22.507812 8.398438 -22.507812 C 5.875 -22.507812 3.980469 -21.082031 2.644531 -19.039062 C 2.539062 -18.871094 2.480469 -18.691406 2.480469 -18.527344 C 2.480469 -18.136719 3.742188 -17.476562 4.027344 -17.339844 L 4.417969 -17.128906 C 4.671875 -16.949219 4.914062 -16.859375 5.109375 -16.859375 C 5.304688 -16.859375 5.410156 -16.949219 5.574219 -17.203125 C 6.234375 -18.210938 7.003906 -18.917969 8.265625 -18.917969 C 9.722656 -18.917969 10.757812 -17.835938 10.757812 -16.394531 C 10.757812 -15.054688 9.601562 -13.960938 8.28125 -13.960938 C 7.8125 -13.960938 7.589844 -13.75 7.589844 -13.3125 L 7.589844 -11.058594 C 7.589844 -10.625 7.828125 -10.441406 8.265625 -10.441406 C 10.277344 -10.441406 12.035156 -9 12.035156 -6.910156 C 12.035156 -4.71875 10.324219 -3.304688 8.203125 -3.304688 C 6.714844 -3.304688 5.5 -4.101562 4.554688 -5.679688 C 4.433594 -5.875 4.238281 -6.324219 3.726562 -6.324219 C 3.5 -6.324219 3.140625 -6.117188 3.082031 -6.101562 C 2.75 -5.980469 2.464844 -5.859375 2.207031 -5.738281 L 1.324219 -5.363281 C 1.066406 -5.257812 0.992188 -5.109375 0.992188 -4.882812 C 0.992188 -4.792969 1.023438 -4.703125 1.066406 -4.628906 C 1.367188 -3.066406 3.082031 -1.367188 4.402344 -0.644531 C 5.558594 0 6.925781 0.316406 8.535156 0.316406 Z M 8.535156 0.316406 "/></g></g></g></svg>